<svg width="27" height="24" viewBox="0 0 27 24" fill="none" xmlns="http://www.w3.org/2000/svg">
<path d="M10.5029 21.5946C10.4023 21.5946 10.3034 21.5683 10.2161 21.5183C10.1287 21.4683 10.056 21.3963 10.005 21.3095C8.08671 18.0414 2.97247 11.0826 2.92109 11.0127C2.83893 10.901 2.79971 10.7635 2.8106 10.6252C2.82149 10.487 2.88175 10.3573 2.98038 10.2599L4.55299 8.70579C4.64904 8.61089 4.77531 8.55265 4.90985 8.5412C5.04439 8.52976 5.17869 8.56583 5.28939 8.64315L10.3828 12.1996C13.791 7.82911 16.9569 4.80963 19.0397 3.02791C21.3846 1.02235 22.8774 0.119451 22.9398 0.0822706C23.0295 0.0284353 23.1322 -1.67673e-06 23.2369 1.16904e-09H25.7811C25.8981 -7.4453e-06 26.0124 0.035559 26.1088 0.101984C26.2051 0.168409 26.279 0.262554 26.3207 0.371939C26.3623 0.481324 26.3697 0.600782 26.3419 0.714475C26.3141 0.828168 26.2524 0.930726 26.165 1.00855C18.94 7.44379 11.0831 21.1651 11.0046 21.303C10.9544 21.391 10.882 21.4643 10.7947 21.5155C10.7073 21.5666 10.6079 21.5939 10.5067 21.5946L10.5029 21.5946Z" fill="#FFD500"/>
<path d="M10.3921 24.001C4.66189 24.001 0 19.3391 0 13.6089C0 7.87863 4.66189 3.2168 10.3921 3.2168C11.541 3.21553 12.6822 3.40517 13.769 3.77798C13.9138 3.82774 14.0329 3.93299 14.1001 4.07059C14.1674 4.20818 14.1772 4.36684 14.1274 4.51166C14.0776 4.65648 13.9724 4.7756 13.8348 4.84281C13.6972 4.91003 13.5385 4.91983 13.3937 4.87007C12.4275 4.53874 11.413 4.37025 10.3916 4.37148C5.298 4.37148 1.15416 8.51538 1.15416 13.6089C1.15416 18.7024 5.298 22.8463 10.3916 22.8463C15.4851 22.8463 19.629 18.7024 19.629 13.6089C19.6291 12.9839 19.5663 12.3605 19.4416 11.7481C19.4264 11.6738 19.426 11.5972 19.4404 11.5227C19.4548 11.4483 19.4837 11.3774 19.5255 11.3141C19.5673 11.2509 19.6212 11.1964 19.684 11.154C19.7469 11.1115 19.8174 11.0818 19.8917 11.0667C19.966 11.0515 20.0426 11.0511 20.1171 11.0655C20.1915 11.0799 20.2624 11.1088 20.3257 11.1506C20.389 11.1924 20.4434 11.2463 20.4858 11.3091C20.5283 11.372 20.558 11.4425 20.5732 11.5168C20.7134 12.2053 20.7841 12.9062 20.7839 13.6089C20.7842 19.3391 16.1223 24.001 10.3921 24.001Z" fill="#FFD500"/>
</svg>
