<svg width="87" height="87" viewBox="0 0 87 87" fill="none" xmlns="http://www.w3.org/2000/svg">
<path d="M43.0625 45.3125C39.6976 45.3125 36.4705 46.6492 34.0911 49.0286C31.7117 51.408 30.375 54.6351 30.375 58C30.375 61.3649 31.7117 64.5921 34.0911 66.9714C36.4705 69.3508 39.6976 70.6875 43.0625 70.6875C46.4274 70.6875 49.6545 69.3508 52.0339 66.9714C54.4133 64.5921 55.75 61.3649 55.75 58C55.75 54.6351 54.4133 51.408 52.0339 49.0286C49.6545 46.6492 46.4274 45.3125 43.0625 45.3125ZM37.625 58C37.625 56.5579 38.1979 55.1748 39.2176 54.1551C40.2373 53.1354 41.6204 52.5625 43.0625 52.5625C44.5046 52.5625 45.8877 53.1354 46.9074 54.1551C47.9271 55.1748 48.5 56.5579 48.5 58C48.5 59.4421 47.9271 60.8252 46.9074 61.8449C45.8877 62.8646 44.5046 63.4375 43.0625 63.4375C41.6204 63.4375 40.2373 62.8646 39.2176 61.8449C38.1979 60.8252 37.625 59.4421 37.625 58Z" fill="#FFD500"/>
<path d="M63.0942 18.5453L51.5704 2.38867L9.19775 36.2389L6.84875 36.2135V36.2498H5V79.7498H81.125V36.2498H77.6377L70.6995 15.9534L63.0942 18.5453ZM69.9781 36.2498H33.6266L60.7017 27.0205L66.219 25.2552L69.9781 36.2498ZM55.9313 20.9885L27.9825 30.515L50.1167 12.8323L55.9313 20.9885ZM12.25 65.8624V50.1299C13.7794 49.588 15.1685 48.7115 16.3161 47.5645C17.4638 46.4175 18.341 45.0289 18.8837 43.4998H67.2412C67.7838 45.0294 68.6609 46.4187 69.8085 47.5663C70.9561 48.7139 72.3454 49.591 73.875 50.1335V65.866C72.3454 66.4086 70.9561 67.2857 69.8085 68.4333C68.6609 69.5809 67.7838 70.9702 67.2412 72.4998H18.891C18.3479 70.9689 17.4699 69.5786 16.3209 68.4303C15.172 67.282 13.7812 66.4047 12.25 65.8624Z" fill="#FFD500"/>
</svg>
