<svg width="600" height="465" viewBox="0 0 600 465" fill="none" xmlns="http://www.w3.org/2000/svg">
<g clip-path="url(#clip0_2177_314)">
<path d="M321 265.855H323.044C367.919 265.855 404.246 228.26 404.246 181.82V119.322C404.246 95.5731 385.571 76.2469 362.623 76.2469C339.675 76.2469 321 95.5731 321 119.322V265.855Z" fill="#FFCE00"/>
<path d="M362.623 72.6894C382.019 72.6894 397.742 56.4173 397.742 36.3447C397.742 16.2721 382.019 0 362.623 0C343.227 0 327.504 16.2721 327.504 36.3447C327.504 56.4173 343.227 72.6894 362.623 72.6894Z" fill="#FFCE00"/>
<path d="M283.372 194.992C270.644 201.338 265.441 218.741 274.824 230.568C277.24 233.548 273.059 237.875 270.644 234.895C259.216 220.568 263.676 199.031 279.47 190.281C289.783 184.608 301.396 185.57 310.687 191.146V172.205V106.534C300.746 102.304 289.318 103.169 279.656 109.323C285.044 123.168 276.032 137.398 263.118 141.821C259.495 143.071 258.008 137.206 261.539 135.956C271.573 132.495 278.82 121.245 273.803 110.476C268.228 98.5538 252.991 100.092 243.236 104.323C239.798 105.861 236.825 100.573 240.263 99.0346C252.062 93.8425 268.507 92.5925 276.776 103.842C287.181 97.2077 299.631 96.0539 310.78 99.8999V87.6889V73.8432C302.418 74.5163 293.778 71.6318 287.739 65.4782C279.842 57.4016 277.147 44.9021 280.678 34.0371C281.886 30.3834 287.553 31.9218 286.345 35.6717C283.558 44.5175 285.416 54.6132 291.92 61.1514C296.937 66.2474 303.998 68.3627 310.78 67.6896V52.8825V0.67305C308.364 0.28845 305.949 0 303.44 0C280.771 0 262.189 18.2685 260.795 41.4407C266.184 42.306 271.201 44.6136 275.754 48.2673C278.727 50.6711 274.639 54.9978 271.666 52.5941C268.414 49.998 264.605 48.2673 260.61 47.4981C259.216 47.3058 257.729 47.2097 256.243 47.2097C239.984 47.2097 226.791 60.863 226.791 77.6893C226.791 81.5353 227.441 85.0928 228.742 88.4581C209.603 94.5155 195.76 112.976 195.76 134.706C195.76 151.052 203.657 165.57 215.642 174.32C219.173 166.628 225.583 160.955 233.388 158.263C232.18 149.802 238.776 143.36 246.488 142.591C250.297 142.206 250.204 148.36 246.488 148.648C242.121 149.033 238.405 152.782 239.148 157.494C240.17 163.359 246.302 163.936 250.854 162.59C254.478 161.532 256.057 167.397 252.434 168.455C246.209 170.282 238.962 168.936 235.431 163.744C228.649 165.955 223.539 170.955 220.659 177.493C220.659 177.493 220.659 177.493 220.752 177.493C219.544 180.378 218.894 183.55 218.894 186.916C218.894 195.185 222.889 202.492 229.021 206.915C227.627 210.665 226.791 214.799 226.791 219.03C226.791 234.702 237.29 247.875 251.412 251.432C252.619 257.49 257.822 262.105 264.047 262.105C267.299 262.105 270.272 260.855 272.502 258.836C280.12 264.317 289.318 267.586 299.259 267.586C303.161 267.586 306.971 267.105 310.687 266.143V203.646V198.358C302.976 192.3 292.756 190.377 283.372 194.992Z" fill="#FFCE00"/>
<path d="M580.211 372.389H580.675C591.36 372.389 600 363.447 600 352.39V299.411H599.536C588.851 299.411 580.211 308.353 580.211 319.41V372.389Z" fill="#FFCE00"/>
<path d="M2.13688 372.389C0.743264 372.389 0 371.62 0 370.082V363.736C0 352.486 3.15887 343.352 9.47662 336.141C15.9802 328.833 24.6206 325.083 35.305 325.083H55.8377C57.3242 325.083 58.0675 325.853 58.0675 327.391V344.313C58.0675 345.852 57.3242 346.621 55.8377 346.621H35.305C30.7526 346.621 27.315 348.063 24.9923 350.852H62.1555V327.391C62.1555 325.853 62.8987 325.083 64.3853 325.083H105.544C107.03 325.083 107.773 325.853 107.773 327.391V370.178C107.773 371.716 107.03 372.485 105.544 372.485H89.1917C87.7052 372.485 86.9619 371.716 86.9619 370.178V346.717H82.874V370.178C82.874 371.716 82.1307 372.485 80.6442 372.485H2.13688V372.389Z" fill="#FFCE00"/>
<path d="M114 372.389C112.607 372.389 111.863 371.62 111.863 370.081V327.487C111.863 325.948 112.607 325.179 114 325.179H130.445C131.838 325.179 132.582 325.948 132.582 327.487V370.177C132.582 371.716 131.838 372.485 130.445 372.485H114V372.389Z" fill="#FFCE00"/>
<path d="M138.9 372.389C137.506 372.389 136.763 371.62 136.763 370.081V327.487C136.763 325.948 137.506 325.179 138.9 325.179H196.688C207.373 325.179 216.013 328.833 222.61 336.236C228.927 343.352 232.086 352.582 232.086 363.832V370.177C232.086 371.716 231.343 372.485 229.857 372.485H138.9V372.389ZM169.931 350.947V346.717H157.481V350.947H169.931ZM207.094 350.947C204.678 348.159 201.148 346.717 196.688 346.717H190.649V350.947H207.094Z" fill="#FFCE00"/>
<path d="M238.308 372.389C236.914 372.389 236.171 371.62 236.171 370.082V353.159C236.171 351.621 236.914 350.852 238.308 350.852H252.709C250.293 348.063 246.855 346.621 242.396 346.621H238.401C237.007 346.621 236.264 345.852 236.264 344.314V327.391C236.264 325.853 237.007 325.084 238.401 325.084H242.396C253.08 325.084 261.721 328.737 268.131 336.141C274.449 343.256 277.515 352.486 277.515 363.736V370.082C277.515 371.62 276.772 372.389 275.378 372.389H238.308Z" fill="#FFCE00"/>
<path d="M354.816 372.389C353.422 372.389 352.679 371.62 352.679 370.082V363.736C352.679 352.486 355.838 343.352 362.155 336.141C368.659 328.833 377.299 325.083 387.984 325.083H399.969C401.455 325.083 402.199 325.853 402.199 327.391V344.313C402.199 345.852 401.455 346.621 399.969 346.621H386.962C382.316 346.621 379.25 348.063 377.578 350.852H399.969C401.455 350.852 402.199 351.621 402.199 353.159V370.178C402.199 371.716 401.455 372.485 399.969 372.485H354.816V372.389Z" fill="#FFCE00"/>
<path d="M433.323 372.389C431.93 372.389 431.187 371.62 431.187 370.082V337.967C431.187 334.41 432.58 331.429 435.46 328.833C438.34 326.333 441.778 325.083 445.773 325.083H474.667C476.154 325.083 476.897 325.853 476.897 327.391V370.178C476.897 371.716 476.154 372.485 474.667 372.485H433.323V372.389ZM456.086 350.948V346.717H451.812V350.948H456.086Z" fill="#FFCE00"/>
<path d="M483.029 372.389C481.635 372.389 480.892 371.62 480.892 370.082V327.487C480.892 325.949 481.635 325.179 483.029 325.179H499.473C500.867 325.179 501.61 325.949 501.61 327.487V350.948H505.791V327.487C505.791 325.949 506.534 325.179 508.021 325.179H524.373C525.859 325.179 526.602 325.949 526.602 327.487V350.948H530.69V327.487C530.69 325.949 531.434 325.179 532.92 325.179H549.272C550.758 325.179 551.502 325.949 551.502 327.487V370.178C551.502 371.716 550.758 372.485 549.272 372.485H483.029V372.389Z" fill="#FFCE00"/>
<path d="M555.962 372.389H556.426C567.111 372.389 575.751 363.447 575.751 352.39V299.411H575.287C564.602 299.411 555.962 308.353 555.962 319.41V372.389Z" fill="#FFCE00"/>
<path d="M306.042 372.389H306.507C317.191 372.389 325.831 363.447 325.831 352.39V299.411H325.367C314.682 299.411 306.042 308.353 306.042 319.41V372.389Z" fill="#FFCE00"/>
<path d="M281.697 372.389H282.162C292.846 372.389 301.487 363.447 301.487 352.39V299.411H301.022C290.338 299.411 281.697 308.353 281.697 319.41V372.389Z" fill="#FFCE00"/>
<path d="M406.842 372.389H426.631V299.411H426.167C415.482 299.411 406.842 308.353 406.842 319.41V372.389Z" fill="#FFCE00"/>
<path d="M491.297 321.333C496.993 321.333 501.61 316.555 501.61 310.661C501.61 304.766 496.993 299.988 491.297 299.988C485.602 299.988 480.984 304.766 480.984 310.661C480.984 316.555 485.602 321.333 491.297 321.333Z" fill="#FFCE00"/>
<path d="M453.949 321.333C459.644 321.333 464.261 316.555 464.261 310.661C464.261 304.766 459.644 299.988 453.949 299.988C448.253 299.988 443.636 304.766 443.636 310.661C443.636 316.555 448.253 321.333 453.949 321.333Z" fill="#FFCE00"/>
<path d="M246.577 320.949C252.273 320.949 256.89 316.171 256.89 310.276C256.89 304.382 252.273 299.604 246.577 299.604C240.882 299.604 236.265 304.382 236.265 310.276C236.265 316.171 240.882 320.949 246.577 320.949Z" fill="#FFCE00"/>
<path d="M122.265 398.061C127.961 398.061 132.578 393.283 132.578 387.389C132.578 381.494 127.961 376.716 122.265 376.716C116.569 376.716 111.952 381.494 111.952 387.389C111.952 393.283 116.569 398.061 122.265 398.061Z" fill="#FFCE00"/>
<path d="M97.3655 398.061C103.061 398.061 107.678 393.283 107.678 387.389C107.678 381.494 103.061 376.716 97.3655 376.716C91.6699 376.716 87.0527 381.494 87.0527 387.389C87.0527 393.283 91.6699 398.061 97.3655 398.061Z" fill="#FFCE00"/>
<path d="M72.4661 398.061C78.1617 398.061 82.7789 393.283 82.7789 387.389C82.7789 381.494 78.1617 376.716 72.4661 376.716C66.7705 376.716 62.1533 381.494 62.1533 387.389C62.1533 393.283 66.7705 398.061 72.4661 398.061Z" fill="#FFCE00"/>
<path d="M516.197 321.333C521.892 321.333 526.509 316.555 526.509 310.661C526.509 304.766 521.892 299.988 516.197 299.988C510.501 299.988 505.884 304.766 505.884 310.661C505.884 316.555 510.501 321.333 516.197 321.333Z" fill="#FFCE00"/>
<path d="M541.191 321.334C546.886 321.334 551.503 316.556 551.503 310.661C551.503 304.767 546.886 299.989 541.191 299.989C535.495 299.989 530.878 304.767 530.878 310.661C530.878 316.556 535.495 321.334 541.191 321.334Z" fill="#FFCE00"/>
<path d="M17.0951 449.117L13.1 463.924H0L17.0951 406.138H33.6327L50.9136 463.924H37.349L33.0753 449.117H17.0951ZM31.2171 439.31L27.7795 427.002C26.7575 423.541 25.8284 419.31 24.9923 415.849H24.8064C23.9703 419.31 23.1341 423.637 22.205 427.002L18.8603 439.31H31.2171Z" fill="#FFD500"/>
<path d="M57.5098 403.061H70.1453V463.924H57.5098V403.061Z" fill="#FFD500"/>
<path d="M80.2728 452.482C82.5955 453.924 87.4267 455.655 91.143 455.655C94.9522 455.655 96.5317 454.309 96.5317 452.097C96.5317 449.982 95.3239 448.925 90.5856 447.29C82.2238 444.405 78.972 439.694 79.065 434.694C79.065 426.906 85.5685 420.945 95.6026 420.945C100.341 420.945 104.522 422.099 107.03 423.349L104.8 432.387C102.942 431.329 99.5047 429.983 95.9742 429.983C92.9083 429.983 91.143 431.233 91.143 433.444C91.143 435.463 92.7224 436.425 97.6466 438.252C105.358 441.04 108.61 444.982 108.703 451.232C108.703 459.02 102.757 464.789 91.143 464.789C85.8472 464.789 81.1089 463.635 78.043 461.905L80.2728 452.482Z" fill="#FFD500"/>
<path d="M116.318 403.061H128.954V427.002H129.14C130.44 425.175 132.113 423.829 134.157 422.676C136.015 421.618 138.338 421.041 140.66 421.041C148.743 421.041 154.875 426.81 154.875 439.406V463.924H142.147V440.848C142.147 435.367 140.289 431.617 135.643 431.617C132.299 431.617 130.255 433.829 129.325 436.137C128.954 437.002 128.954 438.156 128.954 439.021V463.924H116.318V403.061Z" fill="#FFD500"/>
<path d="M177.823 410.273C177.823 413.83 175.129 416.811 171.041 416.811C167.046 416.811 164.445 413.926 164.538 410.273C164.445 406.523 167.139 403.638 171.134 403.638C175.222 403.734 177.73 406.523 177.823 410.273ZM164.816 463.924V422.003H177.452V463.924H164.816Z" fill="#FFD500"/>
<path d="M188.977 463.924V431.618H183.682V422.003H188.977V420.368C188.977 415.272 190.464 409.695 194.087 406.33C197.246 403.253 201.613 402.099 205.236 402.099C208.024 402.099 210.253 402.484 211.926 402.965L211.461 412.964C210.346 412.58 209.046 412.388 207.373 412.388C203.192 412.388 201.52 415.753 201.52 419.887V422.003H209.603V431.618H201.613V463.924H188.977Z" fill="#FFD500"/>
<path d="M238.866 463.924L238.123 459.693H237.844C235.15 463.059 231.062 464.885 226.231 464.885C218.055 464.885 213.131 458.732 213.131 452.001C213.131 441.136 222.607 435.848 236.915 435.944V435.367C236.915 433.156 235.8 429.983 229.576 429.983C225.395 429.983 221.028 431.425 218.427 433.156L216.104 424.791C218.891 423.156 224.466 421.137 231.805 421.137C245.277 421.137 249.644 429.406 249.644 439.213V453.828C249.644 457.867 249.83 461.713 250.201 464.02H238.866V463.924ZM237.38 444.117C230.783 444.021 225.581 445.655 225.581 450.751C225.581 454.117 227.717 455.751 230.598 455.751C233.756 455.751 236.358 453.636 237.101 450.944C237.287 450.271 237.38 449.501 237.38 448.732V444.117Z" fill="#FFD500"/>
<path d="M278.721 437.098V445.752H256.98V437.098H278.721Z" fill="#FFD500"/>
<path d="M299.259 449.117L295.264 463.924H282.164L299.259 406.138H315.89L333.171 463.924H319.606L315.332 449.117H299.259ZM313.474 439.309L310.036 427.002C309.014 423.541 308.085 419.31 307.249 415.849H307.063C306.227 419.31 305.391 423.637 304.462 427.002L301.117 439.309H313.474Z" fill="#FFD500"/>
<path d="M339.762 403.061H352.397V463.924H339.762V403.061Z" fill="#FFD500"/>
<path d="M359.275 456.424L372.004 439.886C374.326 437.098 376.185 434.983 378.507 432.387V432.194H360.669V421.906H393.837V429.695L381.666 445.559C379.436 448.348 377.392 450.944 375.07 453.251V453.444H394.58V463.828H359.368V456.424H359.275Z" fill="#FFD500"/>
<path d="M424.406 463.924L423.663 459.693H423.384C420.69 463.059 416.602 464.885 411.771 464.885C403.595 464.885 398.671 458.732 398.671 452.001C398.671 441.136 408.148 435.848 422.455 435.944V435.367C422.455 433.156 421.34 429.983 415.116 429.983C410.935 429.983 406.568 431.425 403.967 433.156L401.644 424.791C404.431 423.156 410.006 421.137 417.345 421.137C430.817 421.137 435.184 429.406 435.184 439.213V453.828C435.184 457.866 435.37 461.712 435.741 464.02H424.406V463.924ZM422.92 444.117C416.323 444.021 411.121 445.655 411.121 450.751C411.121 454.117 413.257 455.751 416.138 455.751C419.296 455.751 421.898 453.636 422.641 450.944C422.827 450.271 422.92 449.501 422.92 448.732V444.117Z" fill="#FFD500"/>
<path d="M445.122 403.061H457.758V427.002H457.943C459.244 425.176 460.916 423.829 462.96 422.676C464.819 421.618 467.141 421.041 469.464 421.041C477.547 421.041 483.679 426.81 483.679 439.406V463.924H471.043V440.848C471.043 435.367 469.185 431.618 464.54 431.618C461.195 431.618 459.151 433.829 458.222 436.137C457.85 437.002 457.85 438.156 457.85 439.021V463.924H445.215V403.061H445.122Z" fill="#FFD500"/>
<path d="M516.757 463.924L516.014 459.693H515.735C513.041 463.059 508.953 464.885 504.121 464.885C495.946 464.885 491.021 458.732 491.021 452.001C491.021 441.136 500.498 435.848 514.806 435.944V435.367C514.806 433.156 513.691 429.983 507.466 429.983C503.285 429.983 498.919 431.425 496.317 433.156L493.995 424.791C496.782 423.156 502.356 421.137 509.696 421.137C523.168 421.137 527.534 429.406 527.534 439.213V453.828C527.534 457.866 527.72 461.712 528.092 464.02H516.757V463.924ZM515.27 444.117C508.674 444.021 503.471 445.655 503.471 450.751C503.471 454.117 505.608 455.751 508.488 455.751C511.647 455.751 514.248 453.636 514.992 450.944C515.178 450.271 515.27 449.501 515.27 448.732V444.117Z" fill="#FFD500"/>
<path d="M537.104 463.924C537.289 461.136 537.475 456.136 537.475 451.424V403.061H550.111V427.002H550.296C552.712 423.445 556.893 421.041 562.56 421.041C572.223 421.041 579.377 429.406 579.284 442.194C579.284 457.29 569.993 464.885 560.702 464.885C555.964 464.885 551.411 463.059 548.531 458.155H548.345L547.881 464.02H537.104V463.924ZM550.111 446.04C550.111 446.905 550.204 447.675 550.389 448.348C551.226 451.905 554.106 454.501 557.729 454.501C563.118 454.501 566.462 450.174 566.462 442.675C566.462 436.137 563.675 431.041 557.729 431.041C554.292 431.041 551.226 433.733 550.389 437.483C550.204 438.252 550.111 439.021 550.111 439.886V446.04Z" fill="#FFD500"/>
<path d="M600 410.272C600 413.83 597.306 416.81 593.218 416.81C589.223 416.81 586.621 413.926 586.714 410.272C586.621 406.522 589.316 403.638 593.311 403.638C597.399 403.734 600 406.522 600 410.272ZM586.993 463.924V422.002H599.629V463.924H586.993Z" fill="#FFD500"/>
</g>
<defs>
<clipPath id="clip0_2177_314">
<rect width="600" height="464.885" fill="white"/>
</clipPath>
</defs>
</svg>
